<svg id="Layer_1" enable-background="new 0 0 512.082 512.082" height="512" viewBox="0 0 512.082 512.082" width="512" xmlns="http://www.w3.org/2000/svg"><path d="m504.929 237.461c-.1.07-16.88 11.97-16.88 26.69 0 23.9-18.31 57.7-47.67 63.21-10.626 26.923-29.491 34.848-33.15 45.85-3.46 10.38-14.42 26.15-69.44 43.22-29.82 9.26-63.43 15.72-81.74 15.72s-51.92-6.46-81.74-15.72c-55.02-17.07-65.98-32.84-69.44-43.22-3.65-10.977-22.534-18.951-33.15-45.85-29.36-5.51-47.67-39.31-47.67-63.21 0-14.72-16.78-26.62-16.95-26.74-6.48-4.21-8.79-12.28-5.82-19.41 12.75-30.665 47.459-104.085 79.61-120.16 22.7-11.35 53.38-9.78 76.65-5.98 43.111-15.574 152.691-16.015 197.02 0 23.27-3.8 53.95-5.36 76.64 5.98 32.049 16.015 67.014 89.842 79.62 120.16 2.97 7.13.58 15.26-5.89 19.46z" fill="#a07765"/><path d="m448.049 280.151c0 67.692-35.732 77.76-40.82 93.06-3.46 10.38-14.42 26.15-69.44 43.22-29.82 9.26-63.43 15.72-81.74 15.72s-51.92-6.46-81.74-15.72c-55.02-17.07-65.98-32.84-69.44-43.22-5.191-15.611-40.82-24.796-40.82-93.06 0-68.598 50.003-161.899 79.12-181.31 26.899-17.869 88.663-18.69 120.88-18.69 27.556 0 81.783 3.292 104.86 18.68 29.351 19.562 79.14 112.98 79.14 181.32z" fill="#ffdfba"/><path d="m444.129 243.642c-7.597 34.095-33.036 45.949-36.9 57.57-3.46 10.38-14.42 26.15-69.44 43.22-29.82 9.26-63.43 15.72-81.74 15.72s-51.92-6.46-81.74-15.72c-55.02-17.07-65.98-32.84-69.44-43.22-3.918-11.78-29.31-23.507-36.9-57.57 11.588-57.644 49.028-127.352 75.2-144.8 39.218-26.053 189.224-24.359 225.74-.01 26.29 17.521 63.661 87.31 75.22 144.81z" fill="#ffebd2"/><path d="m350.659 406.731c-1.81 4.07-5.3 7.3-9.74 8.72-30.26 9.68-65.95 16.7-84.87 16.7s-54.61-7.02-84.87-16.7c-4.44-1.42-7.93-4.65-9.74-8.72-19.042-37.004-42.039-100.55-12.7-129.89 21.931-21.986 40.238-47.55 73.17-52.02 9.228-1.242 17.601 5.627 18.13 14.98.74 2.5 7.08 8.35 16.01 8.35s15.27-5.85 16.01-8.35c.53-9.371 8.919-16.219 18.13-14.98 32.866 4.461 51.055 29.849 73.17 52.02 29.368 29.369 6.285 92.996-12.7 129.89z" fill="#a07765"/><path d="m375.279 298.181c-4.144 22.327-14.563 49.006-24.62 68.55-1.81 4.07-5.3 7.3-9.74 8.72-30.26 9.68-65.95 16.7-84.87 16.7s-54.61-7.02-84.87-16.7c-4.44-1.42-7.93-4.65-9.74-8.72-9.976-19.386-20.45-46.083-24.62-68.55 3.952-15.012 10.224-19.282 23.36-33.24 16.87-17.89 34.32-36.4 61.73-40.12 9.228-1.242 17.601 5.627 18.13 14.98.74 2.5 7.08 8.35 16.01 8.35s15.27-5.85 16.01-8.35c.53-9.371 8.919-16.219 18.13-14.98 27.41 3.72 44.86 22.23 61.73 40.12 12.511 13.294 19.331 17.936 23.36 33.24z" fill="#c79a83"/><path d="m148.049 200.151c-15.537 0-28.016 12.586-28.016 28 0 15.464 12.536 28 28 28 15.537 0 28.016-12.586 28.016-28 0-15.464-12.536-28-28-28z" fill="#a07765"/><path d="m364.033 256.151c15.537 0 28.016-12.586 28.016-28 0-15.464-12.536-28-28-28-15.537 0-28.016 12.586-28.016 28 0 15.464 12.536 28 28 28z" fill="#a07765"/><path d="m318.214 337.069c.469-.234-15.342-30.714-46.165-38.86v-34.058c0-8.837-7.164-16-16-16s-16 7.163-16 16v34.058c-30.606 8.088-45.593 37.351-46.311 38.787l.146.073c-7.256 10.498.201 25.083 13.165 25.083 7.058 0 13.037-4.576 15.162-10.919l.149.074c-3.083 6.101 9.505-23.155 33.689-23.155 21.477 0 33.615 23.014 33.735 23.247-.061-.12-.084-.073.102-.166 2.125 6.343 8.104 10.919 15.162 10.919 12.967-.001 20.421-14.587 13.166-25.083z" fill="#999"/><path d="m304.049 240.151c0 21.929-23.769 40-48 40-24.571 0-48-18.353-48-40 0-15.47 12.61-32 48-32s48 16.53 48 32z" fill="#818182"/></svg>